<?xml version="1.0" standalone="no"?><!DOCTYPE svg PUBLIC "-//W3C//DTD SVG 1.1//EN" "http://www.w3.org/Graphics/SVG/1.1/DTD/svg11.dtd"><svg t="1737882100738" class="icon" viewBox="0 0 1024 1024" version="1.1" xmlns="http://www.w3.org/2000/svg" p-id="6407" xmlns:xlink="http://www.w3.org/1999/xlink" width="256" height="256"><path d="M512 53.333333c147.285333 0 266.666667 119.381333 266.666667 266.666667 0 43.648-10.496 84.864-29.098667 121.237333C875.136 462.826667 970.666667 572.266667 970.666667 704c0 147.285333-119.381333 266.666667-266.666667 266.666667a265.877333 265.877333 0 0 1-192-81.621334 265.941333 265.941333 0 0 1-192 81.621334C172.714667 970.666667 53.333333 851.285333 53.333333 704c0-131.754667 95.530667-241.173333 221.12-262.784A265.301333 265.301333 0 0 1 245.333333 320c0-147.285333 119.381333-266.666667 266.666667-266.666667z m195.477333 448.021334l-0.554666 0.618666a265.984 265.984 0 0 1-167.146667 83.264l0.277333-0.405333A201.578667 201.578667 0 0 0 501.333333 704a202.666667 202.666667 0 1 0 206.144-202.645333zM320 501.333333a202.666667 202.666667 0 0 0 0 405.333334 202.112 202.112 0 0 0 152.874667-69.610667A265.301333 265.301333 0 0 1 437.333333 704c0-47.445333 12.437333-93.056 35.52-133.056A202.026667 202.026667 0 0 0 320 501.333333z m192-384a202.666667 202.666667 0 0 0-202.666667 202.666667 201.6 201.6 0 0 0 38.464 118.826667 265.813333 265.813333 0 0 1 167.68 83.776L512 522.666667a202.666667 202.666667 0 0 0 0-405.333334z" fill="#191919" p-id="6408"></path></svg>