<?xml version="1.0" standalone="no"?><!DOCTYPE svg PUBLIC "-//W3C//DTD SVG 1.1//EN" "http://www.w3.org/Graphics/SVG/1.1/DTD/svg11.dtd"><svg t="1737880251841" class="icon" viewBox="0 0 1024 1024" version="1.1" xmlns="http://www.w3.org/2000/svg" p-id="1830" xmlns:xlink="http://www.w3.org/1999/xlink" width="200" height="200"><path d="M952.282764 449.405673A443.876073 443.876073 0 0 0 733.556364 121.074036C520.862255-1.712873 248.887855 71.158691 126.100945 283.8528 3.295418 496.546909 76.148364 768.502691 288.861091 891.308218a443.913309 443.913309 0 0 0 396.734836 23.980218l3.351273-5.827491c-87.170327-112.584145-110.778182-240.919273-54.6816-338.087563 55.817309-96.684218 177.803636-140.436945 317.998545-121.949091z m57.250909 9.309091l0.558545 0.093091-0.465454 0.8192 0.539927 5.21309-285.305018 494.126546-8.229237 3.723636c-145.780364 65.442909-314.647273 58.405236-455.698618-23.012072C21.522618 801.456873-60.509091 495.318109 77.730909 255.925527 215.915055 16.514327 522.053818-65.536 761.483636 72.722618c141.032727 81.417309 231.572945 224.162909 247.752146 383.124946l0.297891 2.8672z m-88.994909 43.529309c-108.692945-8.154764-197.780945 27.554909-237.903128 97.056582-40.122182 69.501673-26.512291 164.510255 34.890473 254.5664l203.012655-351.622982z" fill="#111111" p-id="1831"></path></svg>