<svg width="32.000000" height="32.000000" viewBox="0 0 32 32" fill="none" xmlns="http://www.w3.org/2000/svg" xmlns:xlink="http://www.w3.org/1999/xlink">
	<desc>
			Created with Pixso.
	</desc>
	<defs>
		<clipPath id="clip66_2047">
			<rect width="31.999996" height="31.999996" fill="white" fill-opacity="0"/>
		</clipPath>
		<clipPath id="clip66_2048">
			<rect width="32.000004" height="31.999994" fill="white" fill-opacity="0"/>
		</clipPath>
	</defs>
	<g clip-path="url(#clip66_2048)">
		<g clip-path="url(#clip66_2047)">
			<g opacity="0.000000">
				<rect width="31.999996" height="31.999996" fill="#D8D8D8" fill-opacity="1.000000"/>
				<rect width="31.999996" height="31.999996" stroke="#000000" stroke-opacity="0" stroke-width="1.000000"/>
			</g>
			<path d="M16 3.66C16.61 3.66 17.14 4.08 17.29 4.68L17.32 4.84L17.33 5L17.33 27C17.33 27.73 16.73 28.33 16 28.33C15.38 28.33 14.85 27.91 14.7 27.31L14.67 27.15L14.66 27L14.66 26.33L6.5 26.33C5 26.33 3.77 25.17 3.67 23.7L3.66 23.5L3.66 8.5C3.66 7 4.82 5.77 6.29 5.67L6.5 5.66L14.66 5.66L14.66 5C14.66 4.26 15.26 3.66 16 3.66ZM21 23.66C21.73 23.66 22.33 24.26 22.33 25C22.33 25.68 21.81 26.24 21.15 26.32L21 26.33L20 26.33C19.26 26.33 18.66 25.73 18.66 25C18.66 24.31 19.18 23.75 19.84 23.67L20 23.66L21 23.66ZM27 21.66C27.68 21.66 28.24 22.18 28.32 22.84L28.33 23L28.33 23.5C28.33 24.99 27.17 26.22 25.7 26.32L25.5 26.33L25 26.33C24.26 26.33 23.66 25.73 23.66 25C23.66 24.31 24.18 23.75 24.84 23.67L25 23.66L25.5 23.66C25.57 23.66 25.63 23.61 25.65 23.55L25.66 23C25.66 22.26 26.26 21.66 27 21.66ZM14.66 10.33L14.66 8.33L6.5 8.33C6.42 8.33 6.36 8.38 6.34 8.44L6.33 23.5C6.33 23.57 6.38 23.63 6.44 23.65L14.66 23.66L14.66 21.66L10.3 21.66C9.31 21.66 8.44 21 8.34 20.06L8.33 19.88L8.33 12.11C8.33 11.13 9.15 10.42 10.11 10.34L10.3 10.33L14.66 10.33ZM27 16.66C27.68 16.66 28.24 17.18 28.32 17.84L28.33 18L28.33 19C28.33 19.73 27.73 20.33 27 20.33C26.31 20.33 25.75 19.81 25.67 19.15L25.66 19L25.66 18C25.66 17.26 26.26 16.66 27 16.66ZM27 11.66C27.68 11.66 28.24 12.18 28.32 12.84L28.33 13L28.33 14C28.33 14.73 27.73 15.33 27 15.33C26.31 15.33 25.75 14.81 25.67 14.15L25.66 14L25.66 13C25.66 12.26 26.26 11.66 27 11.66ZM25.5 5.66C26.99 5.66 28.22 6.82 28.32 8.29L28.33 8.5L28.33 9C28.33 9.73 27.73 10.33 27 10.33C26.31 10.33 25.75 9.81 25.67 9.15L25.66 9L25.66 8.5C25.66 8.42 25.61 8.36 25.55 8.34L25 8.33C24.26 8.33 23.66 7.73 23.66 7C23.66 6.31 24.18 5.75 24.84 5.67L25 5.66L25.5 5.66ZM21 5.66C21.68 5.66 22.24 6.18 22.32 6.84L22.33 7C22.33 7.68 21.81 8.24 21.15 8.32L21 8.33L20 8.33C19.26 8.33 18.66 7.73 18.66 7C18.66 6.31 19.18 5.75 19.84 5.67L20 5.66L21 5.66Z" fill="#FFFFFF" fill-opacity="1.000000" fill-rule="evenodd"/>
		</g>
	</g>
</svg>
