<svg width="60.000000" height="60.000000" viewBox="0 0 60 60" fill="none" xmlns="http://www.w3.org/2000/svg" xmlns:xlink="http://www.w3.org/1999/xlink">
	<desc>
			Created with Pixso.
	</desc>
	<defs>
		<filter id="filter_20_1816_dd" x="0.000000" y="0.000000" width="60.000000" height="60.000000" filterUnits="userSpaceOnUse" color-interpolation-filters="sRGB">
			<feFlood flood-opacity="0" result="BackgroundImageFix"/>
			<feColorMatrix in="SourceAlpha" type="matrix" values="0 0 0 0 0 0 0 0 0 0 0 0 0 0 0 0 0 0 127 0" result="hardAlpha"/>
			<feOffset dx="0" dy="4"/>
			<feGaussianBlur stdDeviation="2.66667"/>
			<feComposite in2="hardAlpha" operator="out" k2="-1" k3="1"/>
			<feColorMatrix type="matrix" values="0 0 0 0 0 0 0 0 0 0 0 0 0 0 0 0 0 0 0.1 0"/>
			<feBlend mode="normal" in2="BackgroundImageFix" result="effect_dropShadow_1"/>
			<feBlend mode="normal" in="SourceGraphic" in2="effect_dropShadow_1" result="shape"/>
		</filter>
	</defs>
	<g filter="url(#filter_20_1816_dd)">
		<rect x="8.000000" y="4.000000" rx="8.000000" width="44.000000" height="44.000000" fill="#FFFFFF" fill-opacity="1.000000"/>
		<path d="M39.86 15.77C39.8 15.67 39.72 15.59 39.63 15.53C38.4 14.42 37.01 13.55 35.45 12.93C33.88 12.31 32.24 12 30.53 12C28.09 12 25.83 12.6 23.77 13.81C21.7 15.02 20.05 16.67 18.83 18.75C17.61 20.82 17 23.09 17 25.53C17 27.97 17.61 30.24 18.83 32.31C20.05 34.39 21.7 36.04 23.77 37.25C25.83 38.46 28.09 39.06 30.53 39.06C32.13 39.06 33.66 38.8 35.13 38.27C35.35 38.17 35.52 38.04 35.65 37.86C35.77 37.69 35.83 37.49 35.83 37.27C35.83 37.17 35.81 37.06 35.77 36.93C35.67 36.71 35.54 36.54 35.36 36.41C35.19 36.29 35 36.23 34.79 36.23C34.73 36.23 34.61 36.25 34.43 36.29C33.14 36.74 31.84 36.96 30.53 36.96C28.22 36.96 26.12 36.33 24.23 35.08C22.34 33.82 20.95 32.17 20.06 30.13C20.02 29.46 20.16 28.64 20.48 27.66C20.8 26.68 21.51 25.82 22.6 25.06C23.38 24.53 24.21 24.15 25.1 23.91C25.99 23.68 27.16 23.45 28.63 23.23C29.7 23.1 30.5 22.97 31.03 22.86C35.16 22.04 37.93 20.5 39.33 18.23C40.18 19.23 40.83 20.35 41.28 21.6C41.73 22.84 41.96 24.15 41.96 25.53C41.96 26.86 41.74 28.16 41.29 29.43C41.25 29.61 41.23 29.73 41.23 29.79C41.23 30 41.29 30.19 41.41 30.36C41.54 30.54 41.71 30.67 41.93 30.77C42.11 30.81 42.23 30.83 42.29 30.83C42.5 30.83 42.69 30.77 42.86 30.65C43.04 30.52 43.17 30.35 43.27 30.13C43.8 28.66 44.06 27.13 44.06 25.53C44.06 23.66 43.69 21.89 42.95 20.2C42.2 18.51 41.17 17.03 39.86 15.77ZM30.63 20.79C30.16 20.9 29.41 21.03 28.36 21.16C26.78 21.38 25.47 21.64 24.41 21.93C23.36 22.22 22.35 22.68 21.4 23.33C20.42 24 19.65 24.82 19.1 25.79L19.1 25.53C19.1 23.46 19.61 21.55 20.63 19.79C21.65 18.04 23.04 16.65 24.79 15.63C26.55 14.61 28.47 14.1 30.53 14.1C31.89 14.1 33.19 14.33 34.43 14.78C35.67 15.23 36.79 15.87 37.79 16.7C36.84 18.67 34.45 20.04 30.63 20.79ZM25.36 25.53C25.08 25.53 24.83 25.64 24.61 25.85C24.4 26.06 24.29 26.31 24.29 26.6C24.29 26.89 24.4 27.13 24.61 27.33C24.83 27.53 25.08 27.63 25.36 27.63C25.65 27.63 25.9 27.53 26.1 27.33C26.3 27.13 26.4 26.89 26.4 26.6C26.4 26.31 26.3 26.06 26.1 25.85C25.9 25.64 25.65 25.53 25.36 25.53ZM37.16 26.6C37.16 26.31 37.06 26.06 36.86 25.85C36.66 25.64 36.42 25.53 36.13 25.53C35.84 25.53 35.6 25.64 35.4 25.85C35.2 26.06 35.1 26.31 35.1 26.6C35.1 26.89 35.2 27.13 35.4 27.33C35.6 27.53 35.84 27.63 36.13 27.63C36.42 27.63 36.66 27.53 36.86 27.33C37.06 27.13 37.16 26.89 37.16 26.6ZM26.46 32.73C26.78 32.93 27.29 33.17 28.02 33.45C28.74 33.72 29.6 33.86 30.6 33.86C31.97 33.86 33.3 33.5 34.56 32.77C34.85 32.61 35 32.35 35 32C35 31.84 34.96 31.7 34.9 31.56C34.72 31.25 34.45 31.1 34.1 31.1C33.97 31.1 33.83 31.13 33.7 31.2C32.7 31.75 31.66 32.03 30.6 32.03C29.84 32.03 29.18 31.93 28.63 31.73C28.07 31.53 27.68 31.35 27.46 31.2C27.31 31.11 27.14 31.06 26.96 31.06C26.65 31.06 26.4 31.2 26.2 31.46C26.11 31.62 26.06 31.78 26.06 31.96C26.06 32.29 26.2 32.55 26.46 32.73Z" fill="#000000" fill-opacity="0.898039" fill-rule="nonzero"/>
		<path d="M39.9 31.02C39.87 31.02 39.69 31 39.69 31C39.58 30.99 39.53 31 39.53 31.02C39.34 31.9 38.93 32.65 38.29 33.29C37.66 33.93 36.9 34.34 36.03 34.52C36.03 34.55 36.02 34.62 36.01 34.72C35.99 34.81 35.99 34.87 36.03 34.9C36.93 35.09 37.69 35.49 38.31 36.12C38.93 36.74 39.34 37.5 39.53 38.4C39.53 38.49 39.59 38.54 39.71 38.54C39.9 37.67 40.34 36.89 41.02 36.2C41.7 35.52 42.5 35.09 43.4 34.9C43.4 34.87 43.41 34.8 43.42 34.69C43.44 34.58 43.43 34.52 43.4 34.52C42.53 34.34 41.77 33.93 41.14 33.29C40.5 32.65 40.09 31.9 39.9 31.02Z" fill="#ED6F21" fill-opacity="1.000000" fill-rule="evenodd"/>
	</g>
</svg>
