<?xml version="1.0" standalone="no"?>
<svg xmlns="http://www.w3.org/2000/svg" width="24" height="24"><rect width="24" height="24" opacity="0"></rect><g mask="url(#hms_mask_0)"><path d="M4.63 1.99Q3.36 1.99 2.68 2.68Q1.99 3.36 1.99 4.63L1.99 19.37Q1.99 20.64 2.68 21.32Q3.36 22.01 4.63 22.01L19.37 22.01Q20.64 22.01 21.32 21.32Q22.01 20.64 22.01 19.37L22.01 4.63Q22.01 3.36 21.32 2.68Q20.64 1.99 19.37 1.99L4.63 1.99Z" fill="rgba(0,0,0,0.9019607843137255)"></path></g><defs><mask id="hms_mask_0"><rect width="24" height="24" fill="#ffffff"></rect><g><path d="M12.05 11.23Q11.18 11.23 10.44 10.8Q9.7 10.37 9.25 9.62Q8.81 8.88 8.81 8.02Q8.81 7.15 9.25 6.41Q9.7 5.66 10.44 5.23Q11.18 4.8 12.05 4.8Q12.91 4.8 13.66 5.23Q14.4 5.66 14.83 6.41Q15.26 7.15 15.26 8.02Q15.26 8.88 14.83 9.62Q14.4 10.37 13.66 10.8Q12.91 11.23 12.05 11.23ZM12.55 12.29Q13.87 12.29 15.14 12.95Q16.42 13.61 17.23 14.74Q18.05 15.86 18.05 17.23Q18.05 17.98 17.53 18.5Q17.02 19.03 16.27 19.03L7.82 19.03Q7.08 19.03 6.55 18.5Q6.02 17.98 6.02 17.23Q6.02 15.86 6.84 14.74Q7.66 13.61 8.95 12.95Q10.25 12.29 11.54 12.29L12.55 12.29Z" fill="#000000"></path></g></mask></defs></svg>