<svg width="16.000000" height="16.000000" viewBox="0 0 16 16" fill="none" xmlns="http://www.w3.org/2000/svg" xmlns:xlink="http://www.w3.org/1999/xlink">
	<desc>
			Created with Pixso.
	</desc>
	<defs>
		<clipPath id="clip41_3929">
			<rect width="16.000000" height="16.000000" fill="white" fill-opacity="0"/>
		</clipPath>
	</defs>
	<g clip-path="url(#clip41_3929)">
		<g opacity="0.000000">
			<rect width="16.000000" height="16.000000" fill="#ED6F21" fill-opacity="1.000000"/>
		</g>
		<path d="M10.44 2C11.15 2 11.81 2.38 12.17 3L13.73 5.73C14.13 6.42 14.08 7.27 13.6 7.91L9.69 13.19C9.03 14.07 7.78 14.26 6.89 13.6C6.75 13.49 6.62 13.37 6.51 13.23L2.42 8C1.89 7.32 1.85 6.38 2.34 5.66L4.2 2.88C4.57 2.33 5.19 2 5.86 2L10.44 2ZM10.96 6.93C10.74 6.76 10.43 6.81 10.26 7.03L8.13 9.83L6.06 7.03C5.89 6.86 5.57 6.78 5.36 6.93C5.14 7.09 5.1 7.4 5.26 7.63L7.73 10.96C7.94 11.17 8.34 11.21 8.53 10.96L11.06 7.63C11.18 7.42 11.16 7.08 10.96 6.93Z" fill="#ED6F21" fill-opacity="1.000000" fill-rule="evenodd"/>
	</g>
</svg>
